ISO-10303-21;
HEADER;
/*Generated by software containing ST-Developer
 * from STEP Tools, Inc. (www.steptools.com) 
 */
/*OPTION: using custom renumber hook */
/*description */
/*implementation_level */
FILE_DESCRIPTION(('STEP AP242 Edition 2','STEP AP242 Edition 2''CAx-IF Rec.Pracs.---Representation and Presentation of Product Manufa
cturing Information (PMI)---4.0---2014-10-13','STEP AP242 Edition 2''CAx-IF Rec.Pracs.---Representation and Presentation of Product Manufa
cturing Information (PMI)---4.0---2014-10-13''CAx-IF Rec.Pracs.---3D Tessellated Geometry---0.4---2014-09-14','STEP AP242 Edition 2''CAx-IF Rec.Pracs.---Representation and Presentation of Product Manufa
cturing Information (PMI)---4.0---2014-10-13''CAx-IF Rec.Pracs.---3D Tessellated Geometry---0.4---2014-09-14''2;1','STEP AP242 Edition 2''CAx-IF Rec.Pracs.---Representation and Presentation of Product Manufa
cturing Information (PMI)---4.0---2014-10-13''CAx-IF Rec.Pracs.---3D Tessellated Geometry---0.4---2014-09-14''2;1''CAx-IF Rec.Pracs.---User Defined Attributes---1.5---2016-08-15'),'2;1');
/*name */
/*time_stamp */
/*author */
/*organization */
/*preprocessor_version */
/*originating_system */
/*authorisation */
FILE_NAME('/vol/tmp/translate-5209642502051489098/PVC Pat Reverse Engineered.step','2026-04-02T03:00:31',(''),(''),'ST-DEVELOPER v20','ONSHAPE BY PTC INC, 1.212','  ');
FILE_SCHEMA(('AP242_MANAGED_MODEL_BASED_3D_ENGINEERING_MIM_LF { 1 0 10303 442 3 1 4 }'));
ENDSEC;
DATA;
#10=SHAPE_REPRESENTATION_RELATIONSHIP('','',#401,#11);
#11=ADVANCED_BREP_SHAPE_REPRESENTATION('',(#399),#1013);
#12=B_SPLINE_SURFACE_WITH_KNOTS('',3,1,((#665,#666),(#667,#668),(#669,#670),(#671,#672),(#673,#674),(#675,#676),(#677,#678),(#679,#680),(#681,#682),(#683,#684),(#685,#686)),.SURF_OF_LINEAR_EXTRUSION.,.F.,.F.,.F.,(4,1,1,1,1,1,1,1,4),(2,2),(0.246817057115569,0.310088704992395,0.373360352869222,0.436632000746048,0.499903648622874,0.5631752964997,0.626446944376526,0.689718592253352,0.752990240130178),(0.,1.),.UNSPECIFIED.);
#13=B_SPLINE_SURFACE_WITH_KNOTS('',3,1,((#688,#689),(#690,#691),(#692,#693),(#694,#695),(#696,#697),(#698,#699),(#700,#701),(#702,#703),(#704,#705),(#706,#707),(#708,#709)),.SURF_OF_LINEAR_EXTRUSION.,.F.,.F.,.F.,(4,1,1,1,1,1,1,1,4),(2,2),(0.746990240130178,0.810218592253352,0.873446944376526,0.9366752964997,0.999903648622874,1.06313200074605,1.12636035286922,1.1895887049924,1.25281705711557),(0.,1.),.UNSPECIFIED.);
#14=B_SPLINE_SURFACE_WITH_KNOTS('',3,1,((#775,#776),(#777,#778),(#779,#780),(#781,#782),(#783,#784),(#785,#786),(#787,#788),(#789,#790),(#791,#792),(#793,#794),(#795,#796)),.SURF_OF_LINEAR_EXTRUSION.,.F.,.F.,.F.,(4,1,1,1,1,1,1,1,4),(2,2),(0.747150770919571,0.810391714786075,0.873632658652579,0.936873602519082,1.00011454638559,1.06335549025209,1.12659643411859,1.1898373779851,1.2530783218516),(0.,1.),.UNSPECIFIED.);
#15=B_SPLINE_SURFACE_WITH_KNOTS('',3,1,((#798,#799),(#800,#801),(#802,#803),(#804,#805),(#806,#807),(#808,#809),(#810,#811),(#812,#813),(#814,#815),(#816,#817),(#818,#819)),.SURF_OF_LINEAR_EXTRUSION.,.F.,.F.,.F.,(4,1,1,1,1,1,1,1,4),(2,2),(0.247078321591603,0.310337377757793,0.373596433923982,0.436855490090172,0.500114546256362,0.563373602422552,0.626632658588742,0.689891714754932,0.753150770921122),(0.,1.),.UNSPECIFIED.);
#16=B_SPLINE_SURFACE_WITH_KNOTS('',3,1,((#821,#822),(#823,#824),(#825,#826),(#827,#828),(#829,#830),(#831,#832),(#833,#834),(#835,#836),(#837,#838),(#839,#840),(#841,#842),(#843,#844),(#845,#846),(#847,#848),(#849,#850),(#851,#852),(#853,#854),(#855,#856),(#857,#858)),.SURF_OF_LINEAR_EXTRUSION.,.T.,.F.,.F.,(1,1,1,1,1,1,1,1,1,1,1,1,1,1,1,1,1,1,1,1,1,1,1),(2,2),(-0.1875,-0.125,-0.0625,0.,0.0625,0.125,0.1875,0.25,0.3125,0.375,0.4375,0.5,0.5625,0.625,0.6875,0.75,0.8125,0.875,0.9375,1.,1.0625,1.125,1.1875),(0.,1.),.UNSPECIFIED.);
#17=B_SPLINE_SURFACE_WITH_KNOTS('',3,1,((#871,#872),(#873,#874),(#875,#876),(#877,#878),(#879,#880),(#881,#882),(#883,#884),(#885,#886),(#887,#888),(#889,#890),(#891,#892)),.SURF_OF_LINEAR_EXTRUSION.,.F.,.F.,.F.,(4,1,1,1,1,1,1,1,4),(2,2),(0.246817057115569,0.310088704992395,0.373360352869222,0.436632000746048,0.499903648622874,0.5631752964997,0.626446944376526,0.689718592253352,0.752990240130178),(0.,1.),.UNSPECIFIED.);
#18=B_SPLINE_SURFACE_WITH_KNOTS('',3,1,((#894,#895),(#896,#897),(#898,#899),(#900,#901),(#902,#903),(#904,#905),(#906,#907),(#908,#909),(#910,#911),(#912,#913),(#914,#915)),.SURF_OF_LINEAR_EXTRUSION.,.F.,.F.,.F.,(4,1,1,1,1,1,1,1,4),(2,2),(0.746990240130178,0.810218592253352,0.873446944376526,0.9366752964997,0.999903648622874,1.06313200074605,1.12636035286922,1.1895887049924,1.25281705711557),(0.,1.),.UNSPECIFIED.);
#19=B_SPLINE_SURFACE_WITH_KNOTS('',3,1,((#928,#929),(#930,#931),(#932,#933),(#934,#935),(#936,#937),(#938,#939),(#940,#941),(#942,#943),(#944,#945),(#946,#947),(#948,#949)),.SURF_OF_LINEAR_EXTRUSION.,.F.,.F.,.F.,(4,1,1,1,1,1,1,1,4),(2,2),(0.747150770919571,0.810391714786075,0.873632658652579,0.936873602519082,1.00011454638559,1.06335549025209,1.12659643411859,1.1898373779851,1.2530783218516),(0.,1.),.UNSPECIFIED.);
#20=B_SPLINE_SURFACE_WITH_KNOTS('',3,1,((#951,#952),(#953,#954),(#955,#956),(#957,#958),(#959,#960),(#961,#962),(#963,#964),(#965,#966),(#967,#968),(#969,#970),(#971,#972),(#973,#974),(#975,#976),(#977,#978),(#979,#980),(#981,#982),(#983,#984),(#985,#986),(#987,#988)),.SURF_OF_LINEAR_EXTRUSION.,.T.,.F.,.F.,(1,1,1,1,1,1,1,1,1,1,1,1,1,1,1,1,1,1,1,1,1,1,1),(2,2),(-0.1875,-0.125,-0.0625,0.,0.0625,0.125,0.1875,0.25,0.3125,0.375,0.4375,0.5,0.5625,0.625,0.6875,0.75,0.8125,0.875,0.9375,1.,1.0625,1.125,1.1875),(0.,1.),.UNSPECIFIED.);
#21=B_SPLINE_SURFACE_WITH_KNOTS('',3,1,((#990,#991),(#992,#993),(#994,#995),(#996,#997),(#998,#999),(#1000,#1001),(#1002,#1003),(#1004,#1005),(#1006,
#1007),(#1008,#1009),(#1010,#1011)),.SURF_OF_LINEAR_EXTRUSION.,.F.,.F.,.F.,(4,1,1,1,1,1,1,1,4),(2,2),(0.247078321591603,0.310337377757792,0.373596433923982,0.436855490090172,0.500114546256362,0.563373602422552,0.626632658588742,0.689891714754932,0.753150770921122),(0.,1.),.UNSPECIFIED.);
#22=TOROIDAL_SURFACE('',#418,45.,45.);
#23=TOROIDAL_SURFACE('',#422,45.,45.);
#24=TOROIDAL_SURFACE('',#429,45.,45.);
#25=TOROIDAL_SURFACE('',#436,45.,45.);
#26=TOROIDAL_SURFACE('',#441,45.,45.);
#27=TOROIDAL_SURFACE('',#447,45.,45.);
#28=TOROIDAL_SURFACE('',#452,45.,45.);
#29=TOROIDAL_SURFACE('',#458,45.,45.);
#30=B_SPLINE_CURVE_WITH_KNOTS('',3,(#602,#603,#604,#605,#606,#607,#608,#609,#610,#611,#612),.UNSPECIFIED.,.F.,.F.,(4,1,1,1,1,1,1,1,4),(3.61871437355701E-13,0.0039203861738773,0.00784077234739273,0.0117611585209082,0.0156815446944236,0.019601930867939,0.0235223170414544,0.0274427032149699,0.0313630893884853),.UNSPECIFIED.);
#31=B_SPLINE_CURVE_WITH_KNOTS('',3,(#615,#616,#617,#618,#619,#620,#621,#622,#623,#624,#625),.UNSPECIFIED.,.F.,.F.,(4,1,1,1,1,1,1,1,4),(5.19110601261041E-15,0.00392032961396213,0.00784065922791907,0.011760988841876,0.0156813184558329,0.0196016480697899,0.0235219776837468,0.0274423072977038,0.0313626369116607),.UNSPECIFIED.);
#32=B_SPLINE_CURVE_WITH_KNOTS('',3,(#628,#629,#630,#631,#632,#633,#634,#635,#636,#637,#638),.UNSPECIFIED.,.F.,.F.,(4,1,1,1,1,1,1,1,4),(3.61871437355696E-13,0.00392038617387718,0.00784077234739249,0.0117611585209078,0.0156815446944231,0.0196019308679384,0.0235223170414537,0.027442703214969,0.0313630893884843),.UNSPECIFIED.);
#33=B_SPLINE_CURVE_WITH_KNOTS('',3,(#641,#642,#643,#644,#645,#646,#647,#648,#649,#650,#651),.UNSPECIFIED.,.F.,.F.,(4,1,1,1,1,1,1,1,4),(5.19110601261045E-15,0.00392032961396214,0.00784065922791908,0.011760988841876,0.015681318455833,0.0196016480697899,0.0235219776837469,0.0274423072977038,0.0313626369116608),.UNSPECIFIED.);
#34=B_SPLINE_CURVE_WITH_KNOTS('',3,(#719,#720,#721,#722,#723,#724,#725,#726,#727,#728,#729),.UNSPECIFIED.,.F.,.F.,(4,1,1,1,1,1,1,1,4),(0.031361941108954,0.0352813106891564,0.0392006802693588,0.0431200498495612,0.0470394194297636,0.050958789009966,0.0548781585901684,0.0587975281703708,0.0627168977505733),.UNSPECIFIED.);
#35=B_SPLINE_CURVE_WITH_KNOTS('',3,(#732,#733,#734,#735,#736,#737,#738,#739,#740,#741,#742),.UNSPECIFIED.,.F.,.F.,(4,1,1,1,1,1,1,1,4),(0.0313632192638909,0.0352821807262854,0.03920114218868,0.0431201036510746,0.0470390651134692,0.0509580265758638,0.0548769880382584,0.058795949500653,0.0627149109630476),.UNSPECIFIED.);
#36=B_SPLINE_CURVE_WITH_KNOTS('',3,(#743,#744,#745,#746,#747,#748,#749,#750,#751,#752,#753),.UNSPECIFIED.,.F.,.F.,(4,1,1,1,1,1,1,1,4),(0.0313619411089539,0.0352813106891558,0.0392006802693576,0.0431200498495594,0.0470394194297612,0.050958789009963,0.0548781585901648,0.0587975281703666,0.0627168977505684),.UNSPECIFIED.);
#37=B_SPLINE_CURVE_WITH_KNOTS('',3,(#756,#757,#758,#759,#760,#761,#762,#763,#764,#765,#766),.UNSPECIFIED.,.F.,.F.,(4,1,1,1,1,1,1,1,4),(0.0313632192638913,0.0352821807262861,0.039201142188681,0.0431201036510758,0.0470390651134707,0.0509580265758655,0.0548769880382603,0.0587959495006552,0.06271491096305),.UNSPECIFIED.);
#38=PLANE('',#411);
#39=PLANE('',#423);
#40=PLANE('',#437);
#41=PLANE('',#440);
#42=PLANE('',#445);
#43=PLANE('',#456);
#44=CIRCLE('',#409,45.);
#45=CIRCLE('',#410,45.);
#46=CIRCLE('',#413,45.);
#47=CIRCLE('',#414,45.);
#48=CIRCLE('',#416,45.);
#49=CIRCLE('',#417,45.);
#50=CIRCLE('',#420,45.);
#51=CIRCLE('',#421,45.);
#52=CIRCLE('',#424,10.);
#53=CIRCLE('',#425,10.);
#54=CIRCLE('',#427,45.);
#55=CIRCLE('',#428,45.);
#56=CIRCLE('',#430,45.);
#57=CIRCLE('',#432,45.);
#58=CIRCLE('',#434,45.);
#59=CIRCLE('',#435,45.);
#60=CIRCLE('',#438,10.);
#61=CIRCLE('',#439,10.);
#62=CIRCLE('',#442,45.);
#63=CIRCLE('',#444,45.);
#64=CIRCLE('',#446,45.);
#65=CIRCLE('',#448,45.);
#66=CIRCLE('',#450,10.);
#67=CIRCLE('',#451,10.);
#68=CIRCLE('',#453,45.);
#69=CIRCLE('',#455,45.);
#70=CIRCLE('',#457,45.);
#71=CIRCLE('',#459,45.);
#72=CIRCLE('',#461,10.);
#73=CIRCLE('',#462,10.);
#74=ORIENTED_EDGE('',*,*,#158,.F.);
#75=ORIENTED_EDGE('',*,*,#159,.T.);
#76=ORIENTED_EDGE('',*,*,#160,.F.);
#77=ORIENTED_EDGE('',*,*,#161,.T.);
#78=ORIENTED_EDGE('',*,*,#158,.T.);
#79=ORIENTED_EDGE('',*,*,#159,.F.);
#80=ORIENTED_EDGE('',*,*,#162,.F.);
#81=ORIENTED_EDGE('',*,*,#163,.T.);
#82=ORIENTED_EDGE('',*,*,#162,.T.);
#83=ORIENTED_EDGE('',*,*,#164,.T.);
#84=ORIENTED_EDGE('',*,*,#165,.T.);
#85=ORIENTED_EDGE('',*,*,#161,.F.);
#86=ORIENTED_EDGE('',*,*,#160,.T.);
#87=ORIENTED_EDGE('',*,*,#166,.F.);
#88=ORIENTED_EDGE('',*,*,#167,.F.);
#89=ORIENTED_EDGE('',*,*,#168,.F.);
#90=ORIENTED_EDGE('',*,*,#169,.T.);
#91=ORIENTED_EDGE('',*,*,#170,.F.);
#92=ORIENTED_EDGE('',*,*,#171,.T.);
#93=ORIENTED_EDGE('',*,*,#171,.F.);
#94=ORIENTED_EDGE('',*,*,#166,.T.);
#95=ORIENTED_EDGE('',*,*,#172,.F.);
#96=ORIENTED_EDGE('',*,*,#173,.T.);
#97=ORIENTED_EDGE('',*,*,#173,.F.);
#98=ORIENTED_EDGE('',*,*,#170,.T.);
#99=ORIENTED_EDGE('',*,*,#172,.T.);
#100=ORIENTED_EDGE('',*,*,#165,.F.);
#101=ORIENTED_EDGE('',*,*,#174,.F.);
#102=ORIENTED_EDGE('',*,*,#164,.F.);
#103=ORIENTED_EDGE('',*,*,#175,.F.);
#104=ORIENTED_EDGE('',*,*,#176,.F.);
#105=ORIENTED_EDGE('',*,*,#177,.T.);
#106=ORIENTED_EDGE('',*,*,#177,.F.);
#107=ORIENTED_EDGE('',*,*,#178,.T.);
#108=ORIENTED_EDGE('',*,*,#179,.F.);
#109=ORIENTED_EDGE('',*,*,#180,.F.);
#110=ORIENTED_EDGE('',*,*,#178,.F.);
#111=ORIENTED_EDGE('',*,*,#181,.T.);
#112=ORIENTED_EDGE('',*,*,#182,.T.);
#113=ORIENTED_EDGE('',*,*,#183,.T.);
#114=ORIENTED_EDGE('',*,*,#184,.F.);
#115=ORIENTED_EDGE('',*,*,#185,.T.);
#116=ORIENTED_EDGE('',*,*,#185,.F.);
#117=ORIENTED_EDGE('',*,*,#176,.T.);
#118=ORIENTED_EDGE('',*,*,#184,.T.);
#119=ORIENTED_EDGE('',*,*,#186,.T.);
#120=ORIENTED_EDGE('',*,*,#179,.T.);
#121=ORIENTED_EDGE('',*,*,#187,.T.);
#122=ORIENTED_EDGE('',*,*,#180,.T.);
#123=ORIENTED_EDGE('',*,*,#187,.F.);
#124=ORIENTED_EDGE('',*,*,#186,.F.);
#125=ORIENTED_EDGE('',*,*,#174,.T.);
#126=ORIENTED_EDGE('',*,*,#175,.T.);
#127=ORIENTED_EDGE('',*,*,#163,.F.);
#128=ORIENTED_EDGE('',*,*,#188,.T.);
#129=ORIENTED_EDGE('',*,*,#169,.F.);
#130=ORIENTED_EDGE('',*,*,#189,.T.);
#131=ORIENTED_EDGE('',*,*,#188,.F.);
#132=ORIENTED_EDGE('',*,*,#190,.F.);
#133=ORIENTED_EDGE('',*,*,#191,.T.);
#134=ORIENTED_EDGE('',*,*,#189,.F.);
#135=ORIENTED_EDGE('',*,*,#190,.T.);
#136=ORIENTED_EDGE('',*,*,#191,.F.);
#137=ORIENTED_EDGE('',*,*,#168,.T.);
#138=ORIENTED_EDGE('',*,*,#192,.T.);
#139=ORIENTED_EDGE('',*,*,#167,.T.);
#140=ORIENTED_EDGE('',*,*,#193,.T.);
#141=ORIENTED_EDGE('',*,*,#194,.T.);
#142=ORIENTED_EDGE('',*,*,#183,.F.);
#143=ORIENTED_EDGE('',*,*,#195,.T.);
#144=ORIENTED_EDGE('',*,*,#194,.F.);
#145=ORIENTED_EDGE('',*,*,#196,.F.);
#146=ORIENTED_EDGE('',*,*,#197,.T.);
#147=ORIENTED_EDGE('',*,*,#195,.F.);
#148=ORIENTED_EDGE('',*,*,#196,.T.);
#149=ORIENTED_EDGE('',*,*,#197,.F.);
#150=ORIENTED_EDGE('',*,*,#198,.F.);
#151=ORIENTED_EDGE('',*,*,#181,.F.);
#152=ORIENTED_EDGE('',*,*,#199,.T.);
#153=ORIENTED_EDGE('',*,*,#198,.T.);
#154=ORIENTED_EDGE('',*,*,#192,.F.);
#155=ORIENTED_EDGE('',*,*,#193,.F.);
#156=ORIENTED_EDGE('',*,*,#199,.F.);
#157=ORIENTED_EDGE('',*,*,#182,.F.);
#158=EDGE_CURVE('',#200,#201,#226,.F.);
#159=EDGE_CURVE('',#200,#201,#227,.F.);
#160=EDGE_CURVE('',#202,#203,#228,.T.);
#161=EDGE_CURVE('',#202,#203,#229,.T.);
#162=EDGE_CURVE('',#204,#204,#44,.T.);
#163=EDGE_CURVE('',#205,#205,#45,.T.);
#164=EDGE_CURVE('',#206,#207,#30,.T.);
#165=EDGE_CURVE('',#207,#206,#31,.T.);
#166=EDGE_CURVE('',#208,#208,#46,.T.);
#167=EDGE_CURVE('',#209,#210,#32,.T.);
#168=EDGE_CURVE('',#210,#209,#33,.T.);
#169=EDGE_CURVE('',#211,#211,#47,.T.);
#170=EDGE_CURVE('',#212,#212,#48,.T.);
#171=EDGE_CURVE('',#208,#208,#49,.T.);
#172=EDGE_CURVE('',#213,#213,#50,.T.);
#173=EDGE_CURVE('',#212,#212,#51,.T.);
#174=EDGE_CURVE('',#206,#207,#52,.F.);
#175=EDGE_CURVE('',#207,#206,#53,.F.);
#176=EDGE_CURVE('',#214,#214,#54,.T.);
#177=EDGE_CURVE('',#215,#215,#55,.T.);
#178=EDGE_CURVE('',#215,#215,#56,.T.);
#179=EDGE_CURVE('',#216,#217,#34,.F.);
#180=EDGE_CURVE('',#217,#216,#35,.F.);
#181=EDGE_CURVE('',#218,#219,#36,.F.);
#182=EDGE_CURVE('',#219,#218,#37,.F.);
#183=EDGE_CURVE('',#220,#220,#57,.T.);
#184=EDGE_CURVE('',#221,#221,#58,.T.);
#185=EDGE_CURVE('',#214,#214,#59,.T.);
#186=EDGE_CURVE('',#217,#216,#60,.F.);
#187=EDGE_CURVE('',#216,#217,#61,.F.);
#188=EDGE_CURVE('',#211,#211,#62,.T.);
#189=EDGE_CURVE('',#222,#222,#63,.T.);
#190=EDGE_CURVE('',#223,#223,#64,.T.);
#191=EDGE_CURVE('',#222,#222,#65,.T.);
#192=EDGE_CURVE('',#209,#210,#66,.F.);
#193=EDGE_CURVE('',#210,#209,#67,.F.);
#194=EDGE_CURVE('',#220,#220,#68,.T.);
#195=EDGE_CURVE('',#224,#224,#69,.T.);
#196=EDGE_CURVE('',#225,#225,#70,.T.);
#197=EDGE_CURVE('',#224,#224,#71,.T.);
#198=EDGE_CURVE('',#219,#218,#72,.F.);
#199=EDGE_CURVE('',#218,#219,#73,.F.);
#200=VERTEX_POINT('',#588);
#201=VERTEX_POINT('',#589);
#202=VERTEX_POINT('',#592);
#203=VERTEX_POINT('',#593);
#204=VERTEX_POINT('',#597);
#205=VERTEX_POINT('',#599);
#206=VERTEX_POINT('',#613);
#207=VERTEX_POINT('',#614);
#208=VERTEX_POINT('',#627);
#209=VERTEX_POINT('',#639);
#210=VERTEX_POINT('',#640);
#211=VERTEX_POINT('',#653);
#212=VERTEX_POINT('',#656);
#213=VERTEX_POINT('',#661);
#214=VERTEX_POINT('',#713);
#215=VERTEX_POINT('',#715);
#216=VERTEX_POINT('',#730);
#217=VERTEX_POINT('',#731);
#218=VERTEX_POINT('',#754);
#219=VERTEX_POINT('',#755);
#220=VERTEX_POINT('',#768);
#221=VERTEX_POINT('',#771);
#222=VERTEX_POINT('',#864);
#223=VERTEX_POINT('',#867);
#224=VERTEX_POINT('',#921);
#225=VERTEX_POINT('',#924);
#226=ELLIPSE('',#404,63.6396103067893,45.);
#227=ELLIPSE('',#405,63.6396103067893,45.);
#228=ELLIPSE('',#406,63.6396103067893,45.);
#229=ELLIPSE('',#407,63.6396103067893,45.);
#230=EDGE_LOOP('',(#74,#75));
#231=EDGE_LOOP('',(#76,#77));
#232=EDGE_LOOP('',(#78,#79));
#233=EDGE_LOOP('',(#80));
#234=EDGE_LOOP('',(#81));
#235=EDGE_LOOP('',(#82));
#236=EDGE_LOOP('',(#83,#84));
#237=EDGE_LOOP('',(#85,#86));
#238=EDGE_LOOP('',(#87));
#239=EDGE_LOOP('',(#88,#89));
#240=EDGE_LOOP('',(#90));
#241=EDGE_LOOP('',(#91));
#242=EDGE_LOOP('',(#92));
#243=EDGE_LOOP('',(#93,#94));
#244=EDGE_LOOP('',(#95));
#245=EDGE_LOOP('',(#96));
#246=EDGE_LOOP('',(#97,#98));
#247=EDGE_LOOP('',(#99));
#248=EDGE_LOOP('',(#100,#101));
#249=EDGE_LOOP('',(#102,#103));
#250=EDGE_LOOP('',(#104));
#251=EDGE_LOOP('',(#105));
#252=EDGE_LOOP('',(#106,#107));
#253=EDGE_LOOP('',(#108,#109));
#254=EDGE_LOOP('',(#110));
#255=EDGE_LOOP('',(#111,#112));
#256=EDGE_LOOP('',(#113));
#257=EDGE_LOOP('',(#114));
#258=EDGE_LOOP('',(#115));
#259=EDGE_LOOP('',(#116,#117));
#260=EDGE_LOOP('',(#118));
#261=EDGE_LOOP('',(#119,#120));
#262=EDGE_LOOP('',(#121,#122));
#263=EDGE_LOOP('',(#123,#124));
#264=EDGE_LOOP('',(#125,#126));
#265=EDGE_LOOP('',(#127));
#266=EDGE_LOOP('',(#128,#129));
#267=EDGE_LOOP('',(#130));
#268=EDGE_LOOP('',(#131));
#269=EDGE_LOOP('',(#132));
#270=EDGE_LOOP('',(#133,#134));
#271=EDGE_LOOP('',(#135));
#272=EDGE_LOOP('',(#136));
#273=EDGE_LOOP('',(#137,#138));
#274=EDGE_LOOP('',(#139,#140));
#275=EDGE_LOOP('',(#141,#142));
#276=EDGE_LOOP('',(#143));
#277=EDGE_LOOP('',(#144));
#278=EDGE_LOOP('',(#145));
#279=EDGE_LOOP('',(#146,#147));
#280=EDGE_LOOP('',(#148));
#281=EDGE_LOOP('',(#149));
#282=EDGE_LOOP('',(#150,#151));
#283=EDGE_LOOP('',(#152,#153));
#284=EDGE_LOOP('',(#154,#155));
#285=EDGE_LOOP('',(#156,#157));
#286=FACE_BOUND('',#230,.T.);
#287=FACE_BOUND('',#231,.T.);
#288=FACE_BOUND('',#232,.T.);
#289=FACE_BOUND('',#233,.T.);
#290=FACE_BOUND('',#234,.T.);
#291=FACE_BOUND('',#235,.T.);
#292=FACE_BOUND('',#236,.T.);
#293=FACE_BOUND('',#237,.T.);
#294=FACE_BOUND('',#238,.T.);
#295=FACE_BOUND('',#239,.T.);
#296=FACE_BOUND('',#240,.T.);
#297=FACE_BOUND('',#241,.T.);
#298=FACE_BOUND('',#242,.T.);
#299=FACE_BOUND('',#243,.T.);
#300=FACE_BOUND('',#244,.T.);
#301=FACE_BOUND('',#245,.T.);
#302=FACE_BOUND('',#246,.T.);
#303=FACE_BOUND('',#247,.T.);
#304=FACE_BOUND('',#248,.T.);
#305=FACE_BOUND('',#249,.T.);
#306=FACE_BOUND('',#250,.T.);
#307=FACE_BOUND('',#251,.T.);
#308=FACE_BOUND('',#252,.T.);
#309=FACE_BOUND('',#253,.T.);
#310=FACE_BOUND('',#254,.T.);
#311=FACE_BOUND('',#255,.T.);
#312=FACE_BOUND('',#256,.T.);
#313=FACE_BOUND('',#257,.T.);
#314=FACE_BOUND('',#258,.T.);
#315=FACE_BOUND('',#259,.T.);
#316=FACE_BOUND('',#260,.T.);
#317=FACE_BOUND('',#261,.T.);
#318=FACE_BOUND('',#262,.T.);
#319=FACE_BOUND('',#263,.T.);
#320=FACE_BOUND('',#264,.T.);
#321=FACE_BOUND('',#265,.T.);
#322=FACE_BOUND('',#266,.T.);
#323=FACE_BOUND('',#267,.T.);
#324=FACE_BOUND('',#268,.T.);
#325=FACE_BOUND('',#269,.T.);
#326=FACE_BOUND('',#270,.T.);
#327=FACE_BOUND('',#271,.T.);
#328=FACE_BOUND('',#272,.T.);
#329=FACE_BOUND('',#273,.T.);
#330=FACE_BOUND('',#274,.T.);
#331=FACE_BOUND('',#275,.T.);
#332=FACE_BOUND('',#276,.T.);
#333=FACE_BOUND('',#277,.T.);
#334=FACE_BOUND('',#278,.T.);
#335=FACE_BOUND('',#279,.T.);
#336=FACE_BOUND('',#280,.T.);
#337=FACE_BOUND('',#281,.T.);
#338=FACE_BOUND('',#282,.T.);
#339=FACE_BOUND('',#283,.T.);
#340=FACE_BOUND('',#284,.T.);
#341=FACE_BOUND('',#285,.T.);
#342=CYLINDRICAL_SURFACE('',#403,45.);
#343=CYLINDRICAL_SURFACE('',#408,45.);
#344=CYLINDRICAL_SURFACE('',#412,45.);
#345=CYLINDRICAL_SURFACE('',#415,45.);
#346=CYLINDRICAL_SURFACE('',#419,45.);
#347=CYLINDRICAL_SURFACE('',#426,45.);
#348=CYLINDRICAL_SURFACE('',#431,45.);
#349=CYLINDRICAL_SURFACE('',#433,45.);
#350=CYLINDRICAL_SURFACE('',#443,45.);
#351=CYLINDRICAL_SURFACE('',#449,45.);
#352=CYLINDRICAL_SURFACE('',#454,45.);
#353=CYLINDRICAL_SURFACE('',#460,45.);
#354=ADVANCED_FACE('',(#286,#287),#342,.T.);
#355=ADVANCED_FACE('',(#288,#289,#290),#343,.T.);
#356=ADVANCED_FACE('',(#291),#38,.T.);
#357=ADVANCED_FACE('',(#292,#293,#294,#295,#296),#344,.T.);
#358=ADVANCED_FACE('',(#297,#298),#345,.T.);
#359=ADVANCED_FACE('',(#299),#22,.T.);
#360=ADVANCED_FACE('',(#300,#301),#346,.T.);
#361=ADVANCED_FACE('',(#302),#23,.T.);
#362=ADVANCED_FACE('',(#303),#39,.T.);
#363=ADVANCED_FACE('',(#304),#12,.T.);
#364=ADVANCED_FACE('',(#305),#13,.T.);
#365=ADVANCED_FACE('',(#306,#307),#347,.T.);
#366=ADVANCED_FACE('',(#308),#24,.T.);
#367=ADVANCED_FACE('',(#309,#310,#311,#312),#348,.T.);
#368=ADVANCED_FACE('',(#313,#314),#349,.T.);
#369=ADVANCED_FACE('',(#315),#25,.T.);
#370=ADVANCED_FACE('',(#316),#40,.T.);
#371=ADVANCED_FACE('',(#317),#14,.T.);
#372=ADVANCED_FACE('',(#318),#15,.T.);
#373=ADVANCED_FACE('',(#319,#320),#16,.T.);
#374=ADVANCED_FACE('',(#321),#41,.T.);
#375=ADVANCED_FACE('',(#322),#26,.T.);
#376=ADVANCED_FACE('',(#323,#324),#350,.T.);
#377=ADVANCED_FACE('',(#325),#42,.T.);
#378=ADVANCED_FACE('',(#326),#27,.T.);
#379=ADVANCED_FACE('',(#327,#328),#351,.T.);
#380=ADVANCED_FACE('',(#329),#17,.T.);
#381=ADVANCED_FACE('',(#330),#18,.T.);
#382=ADVANCED_FACE('',(#331),#28,.T.);
#383=ADVANCED_FACE('',(#332,#333),#352,.T.);
#384=ADVANCED_FACE('',(#334),#43,.T.);
#385=ADVANCED_FACE('',(#335),#29,.T.);
#386=ADVANCED_FACE('',(#336,#337),#353,.T.);
#387=ADVANCED_FACE('',(#338),#19,.T.);
#388=ADVANCED_FACE('',(#339,#340),#20,.T.);
#389=ADVANCED_FACE('',(#341),#21,.T.);
#390=CLOSED_SHELL('',(#354,#355,#356,#357,#358,#359,#360,#361,#362,#363,#364,#365,#366,#367,#368,#369,#370,#371,#372,#373,#374,#375,#376,#377,#378,#379,#380,#381,#382,#383,#384,#385,#386,#387,#388,#389));
#391=STYLED_ITEM('',(#392),#399);
#392=PRESENTATION_STYLE_ASSIGNMENT((#393));
#393=SURFACE_STYLE_USAGE(.BOTH.,#394);
#394=SURFACE_SIDE_STYLE('',(#395));
#395=SURFACE_STYLE_FILL_AREA(#396);
#396=FILL_AREA_STYLE('',(#397));
#397=FILL_AREA_STYLE_COLOUR('',#398);
#398=COLOUR_RGB('',0.615686274509804,0.811764705882353,0.929411764705882);
#399=MANIFOLD_SOLID_BREP('Part 1',#390);
#400=SHAPE_DEFINITION_REPRESENTATION(#1018,#401);
#401=SHAPE_REPRESENTATION('Part 1',(#402),#1013);
#402=AXIS2_PLACEMENT_3D('',#585,#463,#464);
#403=AXIS2_PLACEMENT_3D('',#586,#465,#466);
#404=AXIS2_PLACEMENT_3D('',#587,#467,#468);
#405=AXIS2_PLACEMENT_3D('',#590,#469,#470);
#406=AXIS2_PLACEMENT_3D('',#591,#471,#472);
#407=AXIS2_PLACEMENT_3D('',#594,#473,#474);
#408=AXIS2_PLACEMENT_3D('',#595,#475,#476);
#409=AXIS2_PLACEMENT_3D('',#596,#477,#478);
#410=AXIS2_PLACEMENT_3D('',#598,#479,#480);
#411=AXIS2_PLACEMENT_3D('',#600,#481,#482);
#412=AXIS2_PLACEMENT_3D('',#601,#483,#484);
#413=AXIS2_PLACEMENT_3D('',#626,#485,#486);
#414=AXIS2_PLACEMENT_3D('',#652,#487,#488);
#415=AXIS2_PLACEMENT_3D('',#654,#489,#490);
#416=AXIS2_PLACEMENT_3D('',#655,#491,#492);
#417=AXIS2_PLACEMENT_3D('',#657,#493,#494);
#418=AXIS2_PLACEMENT_3D('',#658,#495,#496);
#419=AXIS2_PLACEMENT_3D('',#659,#497,#498);
#420=AXIS2_PLACEMENT_3D('',#660,#499,#500);
#421=AXIS2_PLACEMENT_3D('',#662,#501,#502);
#422=AXIS2_PLACEMENT_3D('',#663,#503,#504);
#423=AXIS2_PLACEMENT_3D('',#664,#505,#506);
#424=AXIS2_PLACEMENT_3D('',#687,#507,#508);
#425=AXIS2_PLACEMENT_3D('',#710,#509,#510);
#426=AXIS2_PLACEMENT_3D('',#711,#511,#512);
#427=AXIS2_PLACEMENT_3D('',#712,#513,#514);
#428=AXIS2_PLACEMENT_3D('',#714,#515,#516);
#429=AXIS2_PLACEMENT_3D('',#716,#517,#518);
#430=AXIS2_PLACEMENT_3D('',#717,#519,#520);
#431=AXIS2_PLACEMENT_3D('',#718,#521,#522);
#432=AXIS2_PLACEMENT_3D('',#767,#523,#524);
#433=AXIS2_PLACEMENT_3D('',#769,#525,#526);
#434=AXIS2_PLACEMENT_3D('',#770,#527,#528);
#435=AXIS2_PLACEMENT_3D('',#772,#529,#530);
#436=AXIS2_PLACEMENT_3D('',#773,#531,#532);
#437=AXIS2_PLACEMENT_3D('',#774,#533,#534);
#438=AXIS2_PLACEMENT_3D('',#797,#535,#536);
#439=AXIS2_PLACEMENT_3D('',#820,#537,#538);
#440=AXIS2_PLACEMENT_3D('',#859,#539,#540);
#441=AXIS2_PLACEMENT_3D('',#860,#541,#542);
#442=AXIS2_PLACEMENT_3D('',#861,#543,#544);
#443=AXIS2_PLACEMENT_3D('',#862,#545,#546);
#444=AXIS2_PLACEMENT_3D('',#863,#547,#548);
#445=AXIS2_PLACEMENT_3D('',#865,#549,#550);
#446=AXIS2_PLACEMENT_3D('',#866,#551,#552);
#447=AXIS2_PLACEMENT_3D('',#868,#553,#554);
#448=AXIS2_PLACEMENT_3D('',#869,#555,#556);
#449=AXIS2_PLACEMENT_3D('',#870,#557,#558);
#450=AXIS2_PLACEMENT_3D('',#893,#559,#560);
#451=AXIS2_PLACEMENT_3D('',#916,#561,#562);
#452=AXIS2_PLACEMENT_3D('',#917,#563,#564);
#453=AXIS2_PLACEMENT_3D('',#918,#565,#566);
#454=AXIS2_PLACEMENT_3D('',#919,#567,#568);
#455=AXIS2_PLACEMENT_3D('',#920,#569,#570);
#456=AXIS2_PLACEMENT_3D('',#922,#571,#572);
#457=AXIS2_PLACEMENT_3D('',#923,#573,#574);
#458=AXIS2_PLACEMENT_3D('',#925,#575,#576);
#459=AXIS2_PLACEMENT_3D('',#926,#577,#578);
#460=AXIS2_PLACEMENT_3D('',#927,#579,#580);
#461=AXIS2_PLACEMENT_3D('',#950,#581,#582);
#462=AXIS2_PLACEMENT_3D('',#989,#583,#584);
#463=DIRECTION('',(0.,0.,1.));
#464=DIRECTION('',(1.,0.,0.));
#465=DIRECTION('',(0.,0.,1.));
#466=DIRECTION('',(1.,0.,0.));
#467=DIRECTION('',(0.,0.707106781186548,-0.707106781186548));
#468=DIRECTION('',(0.,0.707106781186548,0.707106781186548));
#469=DIRECTION('',(0.,0.707106781186548,0.707106781186548));
#470=DIRECTION('',(0.,-0.707106781186548,0.707106781186548));
#471=DIRECTION('',(0.,0.707106781186548,-0.707106781186548));
#472=DIRECTION('',(0.,0.707106781186548,0.707106781186548));
#473=DIRECTION('',(0.,0.707106781186548,0.707106781186548));
#474=DIRECTION('',(0.,-0.707106781186548,0.707106781186548));
#475=DIRECTION('',(0.,1.,0.));
#476=DIRECTION('',(0.,0.,1.));
#477=DIRECTION('',(0.,-1.,0.));
#478=DIRECTION('',(0.,0.,-1.));
#479=DIRECTION('',(0.,-1.,0.));
#480=DIRECTION('',(0.,0.,-1.));
#481=DIRECTION('',(0.,-1.,0.));
#482=DIRECTION('',(1.,0.,0.));
#483=DIRECTION('',(0.,1.,0.));
#484=DIRECTION('',(0.,0.,1.));
#485=DIRECTION('',(0.,-1.,0.));
#486=DIRECTION('',(0.,0.,-1.));
#487=DIRECTION('',(0.,-1.,0.));
#488=DIRECTION('',(0.,0.,-1.));
#489=DIRECTION('',(0.5,-9.78372097432165E-17,-0.866025403784438));
#490=DIRECTION('',(-0.866025403784438,0.,-0.5));
#491=DIRECTION('',(0.5,-9.78372097432261E-17,-0.866025403784437));
#492=DIRECTION('',(-0.433012701892217,0.86602540378444,-0.25));
#493=DIRECTION('',(0.5,1.09579112150675E-15,-0.866025403784437));
#494=DIRECTION('',(-0.433012701892217,0.86602540378444,-0.25));
#495=DIRECTION('',(0.866025403784438,-3.05210479613438E-15,0.5));
#496=DIRECTION('',(0.5,0.,-0.866025403784438));
#497=DIRECTION('',(0.965925826289069,0.,-0.258819045102518));
#498=DIRECTION('',(-0.258819045102518,0.,-0.965925826289069));
#499=DIRECTION('',(0.965925826289071,-9.78372097432261E-17,-0.258819045102511));
#500=DIRECTION('',(-0.129409522551255,0.86602540378444,-0.482962913144534));
#501=DIRECTION('',(0.965925826289072,-9.78372097432261E-17,-0.25881904510251));
#502=DIRECTION('',(-0.129409522551254,0.86602540378444,-0.482962913144534));
#503=DIRECTION('',(0.,-1.,0.));
#504=DIRECTION('',(0.,0.,-1.));
#505=DIRECTION('',(0.965925826289071,-9.78372097432261E-17,-0.258819045102511));
#506=DIRECTION('',(0.224143868042005,0.5,0.836516303737811));
#507=DIRECTION('',(0.,0.,1.));
#508=DIRECTION('',(1.,0.,0.));
#509=DIRECTION('',(0.,0.,1.));
#510=DIRECTION('',(1.,0.,0.));
#511=DIRECTION('',(1.,0.,0.));
#512=DIRECTION('',(0.,0.,-1.));
#513=DIRECTION('',(1.,-3.99084954637574E-17,0.));
#514=DIRECTION('',(0.,0.,-1.));
#515=DIRECTION('',(1.,-3.99084954637574E-17,0.));
#516=DIRECTION('',(0.,0.,-1.));
#517=DIRECTION('',(0.,0.,1.));
#518=DIRECTION('',(1.,0.,0.));
#519=DIRECTION('',(0.,-1.,0.));
#520=DIRECTION('',(0.,0.,-1.));
#521=DIRECTION('',(3.99084954637574E-17,-1.,0.));
#522=DIRECTION('',(1.,3.99084954637574E-17,0.));
#523=DIRECTION('',(0.,-1.,0.));
#524=DIRECTION('',(0.,0.,-1.));
#525=DIRECTION('',(0.707106781186546,0.,-0.707106781186549));
#526=DIRECTION('',(-0.707106781186549,0.,-0.707106781186546));
#527=DIRECTION('',(0.707106781186546,-3.99084954637574E-17,-0.707106781186549));
#528=DIRECTION('',(-0.707106781186549,0.,-0.707106781186546));
#529=DIRECTION('',(0.707106781186546,-3.99084954637574E-17,-0.707106781186549));
#530=DIRECTION('',(-0.707106781186549,0.,-0.707106781186546));
#531=DIRECTION('',(0.,1.,0.));
#532=DIRECTION('',(0.,0.,1.));
#533=DIRECTION('',(0.707106781186546,-3.99084954637574E-17,-0.707106781186549));
#534=DIRECTION('',(2.82195677693753E-17,1.,-2.82195677693755E-17));
#535=DIRECTION('',(0.,0.,1.));
#536=DIRECTION('',(1.,0.,0.));
#537=DIRECTION('',(0.,0.,1.));
#538=DIRECTION('',(1.,0.,0.));
#539=DIRECTION('',(0.,1.,0.));
#540=DIRECTION('',(1.,0.,0.));
#541=DIRECTION('',(0.866025403784438,3.05210479613438E-15,0.5));
#542=DIRECTION('',(0.5,0.,-0.866025403784438));
#543=DIRECTION('',(-0.5,1.09579112150675E-15,0.866025403784437));
#544=DIRECTION('',(-0.433012701892217,-0.86602540378444,-0.25));
#545=DIRECTION('',(0.5,9.78372097432165E-17,-0.866025403784438));
#546=DIRECTION('',(-0.866025403784438,0.,-0.5));
#547=DIRECTION('',(-0.5,-9.78372097432261E-17,0.866025403784437));
#548=DIRECTION('',(-0.433012701892217,-0.86602540378444,-0.25));
#549=DIRECTION('',(0.965925826289071,9.78372097432261E-17,-0.258819045102511));
#550=DIRECTION('',(0.224143868042005,-0.5,0.836516303737811));
#551=DIRECTION('',(-0.965925826289071,-9.78372097432261E-17,0.258819045102511));
#552=DIRECTION('',(-0.129409522551255,-0.86602540378444,-0.482962913144534));
#553=DIRECTION('',(0.,1.,0.));
#554=DIRECTION('',(0.,0.,-1.));
#555=DIRECTION('',(-0.965925826289072,-9.78372097432261E-17,0.25881904510251));
#556=DIRECTION('',(-0.129409522551254,-0.86602540378444,-0.482962913144534));
#557=DIRECTION('',(0.965925826289069,0.,-0.258819045102518));
#558=DIRECTION('',(-0.258819045102518,0.,-0.965925826289069));
#559=DIRECTION('',(0.,0.,-1.));
#560=DIRECTION('',(1.,0.,0.));
#561=DIRECTION('',(0.,0.,-1.));
#562=DIRECTION('',(1.,0.,0.));
#563=DIRECTION('',(0.,0.,1.));
#564=DIRECTION('',(1.,0.,0.));
#565=DIRECTION('',(-1.,-3.99084954637574E-17,0.));
#566=DIRECTION('',(0.,0.,-1.));
#567=DIRECTION('',(1.,0.,0.));
#568=DIRECTION('',(0.,0.,-1.));
#569=DIRECTION('',(-1.,-3.99084954637574E-17,0.));
#570=DIRECTION('',(0.,0.,-1.));
#571=DIRECTION('',(0.707106781186546,3.99084954637574E-17,-0.707106781186549));
#572=DIRECTION('',(2.82195677693753E-17,-1.,-2.82195677693755E-17));
#573=DIRECTION('',(-0.707106781186546,-3.99084954637574E-17,0.707106781186549));
#574=DIRECTION('',(-0.707106781186549,0.,-0.707106781186546));
#575=DIRECTION('',(0.,-1.,0.));
#576=DIRECTION('',(0.,0.,1.));
#577=DIRECTION('',(-0.707106781186546,-3.99084954637574E-17,0.707106781186549));
#578=DIRECTION('',(-0.707106781186549,0.,-0.707106781186546));
#579=DIRECTION('',(0.707106781186546,0.,-0.707106781186549));
#580=DIRECTION('',(-0.707106781186549,0.,-0.707106781186546));
#581=DIRECTION('',(0.,0.,-1.));
#582=DIRECTION('',(1.,0.,0.));
#583=DIRECTION('',(0.,0.,-1.));
#584=DIRECTION('',(1.,0.,0.));
#585=CARTESIAN_POINT('',(0.,0.,0.));
#586=CARTESIAN_POINT('',(0.,2.75545529808154E-15,-320.002));
#587=CARTESIAN_POINT('',(0.,1.37772764904077E-15,1.37772764904077E-15));
#588=CARTESIAN_POINT('',(-45.,-5.51091059616309E-15,0.));
#589=CARTESIAN_POINT('',(45.,0.,2.75545529808154E-15));
#590=CARTESIAN_POINT('',(0.,-1.37772764904077E-15,1.37772764904077E-15));
#591=CARTESIAN_POINT('',(0.,-1.37772764904077E-15,-320.));
#592=CARTESIAN_POINT('',(-45.,0.,-320.));
#593=CARTESIAN_POINT('',(45.,0.,-320.));
#594=CARTESIAN_POINT('',(0.,1.37772764904077E-15,-320.));
#595=CARTESIAN_POINT('',(0.,-76.002,2.75545529808154E-15));
#596=CARTESIAN_POINT('',(0.,-76.,2.75545529808154E-15));
#597=CARTESIAN_POINT('',(0.,-76.,-45.));
#598=CARTESIAN_POINT('',(0.,76.,2.75545529808154E-15));
#599=CARTESIAN_POINT('',(0.,76.,-45.));
#600=CARTESIAN_POINT('',(3.08148791101958E-30,-76.,0.));
#601=CARTESIAN_POINT('',(0.,-158.002,-320.));
#602=CARTESIAN_POINT('',(-1.9651133247839E-11,-110.000000002048,-365.000000000153));
#603=CARTESIAN_POINT('',(1.32574985482757,-110.000000934945,-365.000000000154));
#604=CARTESIAN_POINT('',(3.93626427005654,-109.483377516903,-364.878869586004));
#605=CARTESIAN_POINT('',(7.2720125815054,-107.282793156645,-364.439329100321));
#606=CARTESIAN_POINT('',(9.49468615828067,-103.970943210431,-363.994897299808));
#607=CARTESIAN_POINT('',(10.2623059237705,-100.030924845385,-363.81260862521));
#608=CARTESIAN_POINT('',(9.45527382587923,-96.0972778804395,-364.003785876552));
#609=CARTESIAN_POINT('',(7.23576079112742,-92.7748202805032,-364.444437691085));
#610=CARTESIAN_POINT('',(3.93553890768564,-90.5343636182258,-364.87900533111));
#611=CARTESIAN_POINT('',(1.30807992596387,-90.0000002114035,-365.));
#612=CARTESIAN_POINT('',(-2.4287937873111E-12,-89.9999999999455,-365.));
#613=CARTESIAN_POINT('',(0.,-110.,-365.));
#614=CARTESIAN_POINT('',(0.,-90.,-365.));
#615=CARTESIAN_POINT('',(7.71422458573417E-13,-89.9999999999729,-364.999999999998));
#616=CARTESIAN_POINT('',(-1.32606688993012,-89.9999997856067,-364.999999999998));
#617=CARTESIAN_POINT('',(-3.93522106267708,-90.5366084983103,-364.878471625046));
#618=CARTESIAN_POINT('',(-7.24234183422,-92.7806306941025,-364.443532799797));
#619=CARTESIAN_POINT('',(-9.45241721229175,-96.09513051528,-364.00426297074));
#620=CARTESIAN_POINT('',(-10.2618104646697,-100.020912905185,-363.812723068899));
#621=CARTESIAN_POINT('',(-9.49925133546163,-103.964268164597,-363.994024714477));
#622=CARTESIAN_POINT('',(-7.2677672696585,-107.286722167556,-364.439864199219));
#623=CARTESIAN_POINT('',(-3.93741601248518,-109.485512004352,-364.879397826303));
#624=CARTESIAN_POINT('',(-1.30732278177258,-109.999999084209,-365.000000000004));
#625=CARTESIAN_POINT('',(1.26147074387586E-10,-110.000000004118,-365.));
#626=CARTESIAN_POINT('',(0.,-158.,-320.));
#627=CARTESIAN_POINT('',(22.5,-158.,-358.9711431703));
#628=CARTESIAN_POINT('',(-1.9651133247839E-11,110.000000002048,-365.000000000153));
#629=CARTESIAN_POINT('',(1.32574985482753,110.000000934945,-365.000000000154));
#630=CARTESIAN_POINT('',(3.9362642700564,109.483377516903,-364.878869586004));
#631=CARTESIAN_POINT('',(7.27201258150529,107.282793156645,-364.439329100321));
#632=CARTESIAN_POINT('',(9.49468615828061,103.970943210431,-363.994897299808));
#633=CARTESIAN_POINT('',(10.2623059237705,100.030924845386,-363.81260862521));
#634=CARTESIAN_POINT('',(9.45527382587935,96.0972778804398,-364.003785876552));
#635=CARTESIAN_POINT('',(7.23576079112758,92.7748202805034,-364.444437691085));
#636=CARTESIAN_POINT('',(3.93553890768581,90.5343636182258,-364.87900533111));
#637=CARTESIAN_POINT('',(1.30807992596393,90.0000002114035,-365.));
#638=CARTESIAN_POINT('',(-2.4218484083112E-12,89.9999999999455,-365.));
#639=CARTESIAN_POINT('',(0.,110.,-365.));
#640=CARTESIAN_POINT('',(0.,90.,-365.));
#641=CARTESIAN_POINT('',(7.71422458573417E-13,89.9999999999729,-364.999999999998));
#642=CARTESIAN_POINT('',(-1.32606688993012,89.9999997856067,-364.999999999998));
#643=CARTESIAN_POINT('',(-3.93522106267707,90.5366084983104,-364.878471625046));
#644=CARTESIAN_POINT('',(-7.24234183422,92.7806306941025,-364.443532799797));
#645=CARTESIAN_POINT('',(-9.45241721229175,96.09513051528,-364.00426297074));
#646=CARTESIAN_POINT('',(-10.2618104646697,100.020912905185,-363.812723068899));
#647=CARTESIAN_POINT('',(-9.49925133546163,103.964268164597,-363.994024714477));
#648=CARTESIAN_POINT('',(-7.26776726965858,107.286722167556,-364.439864199219));
#649=CARTESIAN_POINT('',(-3.93741601248526,109.485512004352,-364.879397826303));
#650=CARTESIAN_POINT('',(-1.3073227817726,109.999999084209,-365.000000000003));
#651=CARTESIAN_POINT('',(1.26152309474716E-10,110.000000004118,-365.));
#652=CARTESIAN_POINT('',(0.,158.,-320.));
#653=CARTESIAN_POINT('',(22.5,158.,-358.9711431703));
#654=CARTESIAN_POINT('',(22.5,-203.,-358.9711431703));
#655=CARTESIAN_POINT('',(167.75,-203.,-610.551522969678));
#656=CARTESIAN_POINT('',(206.721143170299,-203.,-588.051522969679));
#657=CARTESIAN_POINT('',(22.5,-203.,-358.9711431703));
#658=CARTESIAN_POINT('',(22.5,-158.,-358.9711431703));
#659=CARTESIAN_POINT('',(195.074286140686,-203.,-631.518185152687));
#660=CARTESIAN_POINT('',(484.852034027407,-203.,-709.163898683442));
#661=CARTESIAN_POINT('',(479.028605512601,-164.0288568297,-730.897229774946));
#662=CARTESIAN_POINT('',(195.074286140686,-203.,-631.518185152687));
#663=CARTESIAN_POINT('',(206.7211431703,-203.,-588.051522969679));
#664=CARTESIAN_POINT('',(484.852034027407,-203.,-709.163898683442));
#665=CARTESIAN_POINT('',(0.188713054966361,-110.037577908133,-364.473583657997));
#666=CARTESIAN_POINT('',(0.188713054966361,-109.886153129711,-366.49889006939));
#667=CARTESIAN_POINT('',(-1.13891584600216,-110.062495225081,-364.475446634964));
#668=CARTESIAN_POINT('',(-1.13891584600216,-109.911070446659,-366.500753046358));
#669=CARTESIAN_POINT('',(-3.78743135070854,-109.582766075837,-364.439579035021));
#670=CARTESIAN_POINT('',(-3.78743135070854,-109.431341297415,-366.464885446415));
#671=CARTESIAN_POINT('',(-7.18401320680299,-107.388664888321,-364.275534086422));
#672=CARTESIAN_POINT('',(-7.18401320680299,-107.237240109899,-366.300840497815));
#673=CARTESIAN_POINT('',(-9.46251673903884,-104.056228220436,-364.026379943029));
#674=CARTESIAN_POINT('',(-9.46251673903884,-103.904803442014,-366.051686354423));
#675=CARTESIAN_POINT('',(-10.2677504638914,-100.101282336173,-363.730683054485));
#676=CARTESIAN_POINT('',(-10.2677504638914,-99.9498575577506,-365.755989465879));
#677=CARTESIAN_POINT('',(-9.46647333811667,-96.1392604038627,-363.434457115621));
#678=CARTESIAN_POINT('',(-9.46647333811667,-95.9878356254408,-365.459763527015));
#679=CARTESIAN_POINT('',(-7.18258819795572,-92.8001327943528,-363.18480271491));
#680=CARTESIAN_POINT('',(-7.18258819795572,-92.6487080159308,-365.210109126304));
#681=CARTESIAN_POINT('',(-3.78974169700743,-90.6063639882243,-363.020782617256));
#682=CARTESIAN_POINT('',(-3.78974169700743,-90.4549392098024,-365.046089028649));
#683=CARTESIAN_POINT('',(-1.12922532177604,-90.1277660166089,-362.984999591341));
#684=CARTESIAN_POINT('',(-1.12922532177604,-89.9763412381869,-365.010306002734));
#685=CARTESIAN_POINT('',(0.187348962166488,-90.1522696506449,-362.986831638745));
#686=CARTESIAN_POINT('',(0.187348962166488,-90.0008448722229,-365.012138050139));
#687=CARTESIAN_POINT('',(0.,-100.,-365.));
#688=CARTESIAN_POINT('',(-0.187241384602113,-90.1524460707962,-362.984444751237));
#689=CARTESIAN_POINT('',(-0.187241384602113,-90.0008417815168,-365.01215212035));
#690=CARTESIAN_POINT('',(1.12872198020938,-90.1279678351195,-362.982614602776));
#691=CARTESIAN_POINT('',(1.12872198020938,-89.97636354584,-365.010321971889));
#692=CARTESIAN_POINT('',(3.78688327115754,-90.6059013176864,-363.018347947267));
#693=CARTESIAN_POINT('',(3.78688327115754,-90.454297028407,-365.046055316379));
#694=CARTESIAN_POINT('',(7.17776089423717,-92.7963681107007,-363.182121165436));
#695=CARTESIAN_POINT('',(7.17776089423717,-92.6447638214212,-365.209828534549));
#696=CARTESIAN_POINT('',(9.46107275905373,-96.1290100875139,-363.431290659029));
#697=CARTESIAN_POINT('',(9.46107275905373,-95.9774057982344,-365.458998028142));
#698=CARTESIAN_POINT('',(10.2688564249538,-100.087263400561,-363.727234831968));
#699=CARTESIAN_POINT('',(10.2688564249538,-99.935659111281,-365.75494220108));
#700=CARTESIAN_POINT('',(9.46349029324885,-104.056121625691,-364.023971895528));
#701=CARTESIAN_POINT('',(9.46349029324885,-103.904517336411,-366.051679264641));
#702=CARTESIAN_POINT('',(7.18705319675828,-107.385171995242,-364.272872857738));
#703=CARTESIAN_POINT('',(7.18705319675828,-107.233567705962,-366.300580226851));
#704=CARTESIAN_POINT('',(3.78806626444672,-109.584491537589,-364.437307963709));
#705=CARTESIAN_POINT('',(3.78806626444672,-109.432887248309,-366.465015332821));
#706=CARTESIAN_POINT('',(1.13298283675174,-110.062467588213,-364.473044490856));
#707=CARTESIAN_POINT('',(1.13298283675174,-109.910863298933,-366.500751859969));
#708=CARTESIAN_POINT('',(-0.188189303861434,-110.037768269336,-364.47119781281));
#709=CARTESIAN_POINT('',(-0.188189303861434,-109.886163980056,-366.498905181923));
#710=CARTESIAN_POINT('',(0.,-100.,-365.));
#711=CARTESIAN_POINT('',(45.,-173.,-945.));
#712=CARTESIAN_POINT('',(505.,-173.,-945.));
#713=CARTESIAN_POINT('',(505.,-173.,-990.));
#714=CARTESIAN_POINT('',(45.,-173.,-945.));
#715=CARTESIAN_POINT('',(45.,-128.,-945.));
#716=CARTESIAN_POINT('',(45.,-128.,-945.));
#717=CARTESIAN_POINT('',(5.10828741936095E-15,-128.,-945.));
#718=CARTESIAN_POINT('',(0.,0.,-945.));
#719=CARTESIAN_POINT('',(9.33169438667144E-11,-49.999999996957,-900.));
#720=CARTESIAN_POINT('',(1.30703838068354,-50.0000016042722,-900.000000000003));
#721=CARTESIAN_POINT('',(3.93657936097718,-50.5142961429163,-900.120591280237));
#722=CARTESIAN_POINT('',(7.26350718067799,-52.7108354484517,-900.559522710471));
#723=CARTESIAN_POINT('',(9.49322559953975,-56.0219968442536,-901.004628962839));
#724=CARTESIAN_POINT('',(10.2629411846161,-59.9704975519037,-901.187554017723));
#725=CARTESIAN_POINT('',(9.45420331143719,-63.9026862351656,-900.996039561456));
#726=CARTESIAN_POINT('',(7.24172255213587,-67.2183507866081,-900.556582507772));
#727=CARTESIAN_POINT('',(3.94638854744495,-69.4590821728169,-900.122428951972));
#728=CARTESIAN_POINT('',(1.32587318723283,-69.9999957625653,-899.999999999936));
#729=CARTESIAN_POINT('',(-2.18348521644897E-09,-69.9999999842228,-900.));
#730=CARTESIAN_POINT('',(2.79359468246302E-15,-70.,-900.));
#731=CARTESIAN_POINT('',(1.30104260698261E-15,-50.,-900.));
#732=CARTESIAN_POINT('',(7.02180914172716E-10,-69.9999999842228,-900.));
#733=CARTESIAN_POINT('',(-1.30761273102847,-70.0000041481226,-899.99999999998));
#734=CARTESIAN_POINT('',(-3.93525875184306,-69.4659608451483,-900.120955664139));
#735=CARTESIAN_POINT('',(-7.23487252080204,-67.2251187985906,-900.555479413674));
#736=CARTESIAN_POINT('',(-9.45114909406957,-63.9106582628763,-900.995321458718));
#737=CARTESIAN_POINT('',(-10.2625069735858,-59.978541312461,-901.187447996781));
#738=CARTESIAN_POINT('',(-9.49772179744586,-56.0343864778757,-901.005703944823));
#739=CARTESIAN_POINT('',(-7.27347858715473,-52.7199073280097,-900.561110971958));
#740=CARTESIAN_POINT('',(-3.94763472200121,-50.5206204133987,-900.122002095355));
#741=CARTESIAN_POINT('',(-1.32539381142539,-49.9999983692873,-900.0000000005));
#742=CARTESIAN_POINT('',(-1.69672364058687E-08,-49.9999999969569,-900.));
#743=CARTESIAN_POINT('',(9.33238761961131E-11,49.999999996957,-900.));
#744=CARTESIAN_POINT('',(1.30703838068347,50.0000016042723,-900.000000000003));
#745=CARTESIAN_POINT('',(3.93657936097708,50.5142961429162,-900.120591280237));
#746=CARTESIAN_POINT('',(7.26350718067796,52.7108354484516,-900.559522710471));
#747=CARTESIAN_POINT('',(9.49322559953968,56.0219968442535,-901.00462896284));
#748=CARTESIAN_POINT('',(10.2629411846162,59.9704975519037,-901.187554017722));
#749=CARTESIAN_POINT('',(9.45420331143718,63.9026862351656,-900.996039561457));
#750=CARTESIAN_POINT('',(7.24172255213591,67.2183507866082,-900.55658250777));
#751=CARTESIAN_POINT('',(3.94638854744483,69.4590821728169,-900.122428951972));
#752=CARTESIAN_POINT('',(1.32587318723283,69.9999957625653,-899.999999999936));
#753=CARTESIAN_POINT('',(-2.18347819708694E-09,69.9999999842227,-900.));
#754=CARTESIAN_POINT('',(2.79359468246302E-15,70.,-900.));
#755=CARTESIAN_POINT('',(1.30104260698261E-15,50.,-900.));
#756=CARTESIAN_POINT('',(7.02159823899362E-10,69.9999999842228,-900.));
#757=CARTESIAN_POINT('',(-1.30761273102853,70.0000041481229,-899.99999999998));
#758=CARTESIAN_POINT('',(-3.9352587518432,69.4659608451481,-900.120955664139));
#759=CARTESIAN_POINT('',(-7.23487252080217,67.2251187985905,-900.555479413674));
#760=CARTESIAN_POINT('',(-9.4511490940696,63.9106582628762,-900.995321458719));
#761=CARTESIAN_POINT('',(-10.2625069735858,59.9785413124608,-901.18744799678));
#762=CARTESIAN_POINT('',(-9.49772179744582,56.0343864778756,-901.005703944823));
#763=CARTESIAN_POINT('',(-7.27347858715463,52.7199073280096,-900.561110971957));
#764=CARTESIAN_POINT('',(-3.94763472200108,50.5206204133987,-900.122002095354));
#765=CARTESIAN_POINT('',(-1.32539381142537,49.9999983692872,-900.0000000005));
#766=CARTESIAN_POINT('',(-1.69672328999994E-08,49.9999999969569,-900.));
#767=CARTESIAN_POINT('',(5.10828741936095E-15,128.,-945.));
#768=CARTESIAN_POINT('',(45.,128.,-945.));
#769=CARTESIAN_POINT('',(536.819805153395,-173.,-958.180194846606));
#770=CARTESIAN_POINT('',(904.515331370398,-173.,-1325.87572106361));
#771=CARTESIAN_POINT('',(872.695526217003,-173.,-1357.695526217));
#772=CARTESIAN_POINT('',(536.819805153395,-173.,-958.180194846605));
#773=CARTESIAN_POINT('',(505.,-173.,-990.));
#774=CARTESIAN_POINT('',(904.515331370398,-173.,-1325.87572106361));
#775=CARTESIAN_POINT('',(-0.189417006527352,-69.8481282019063,-902.00732611578));
#776=CARTESIAN_POINT('',(-0.189417006527352,-69.9991137885678,-899.987893894183));
#777=CARTESIAN_POINT('',(1.13974122114928,-69.8731377681956,-902.009195989896));
#778=CARTESIAN_POINT('',(1.13974122114928,-70.0241233548571,-899.989763768299));
#779=CARTESIAN_POINT('',(3.78872506470536,-69.3933611952748,-901.973324844255));
#780=CARTESIAN_POINT('',(3.78872506470536,-69.5443467819363,-899.953892622658));
#781=CARTESIAN_POINT('',(7.18666478236953,-67.1956404843667,-901.809009277086));
#782=CARTESIAN_POINT('',(7.18666478236953,-67.3466260710282,-899.789577055489));
#783=CARTESIAN_POINT('',(9.46249318047794,-63.8695241416187,-901.560327681366));
#784=CARTESIAN_POINT('',(9.46249318047794,-64.0205097282801,-899.540895459769));
#785=CARTESIAN_POINT('',(10.2692016503647,-59.8950145000205,-901.263168081994));
#786=CARTESIAN_POINT('',(10.2692016503647,-60.046000086682,-899.243735860397));
#787=CARTESIAN_POINT('',(9.46068438203856,-55.9400053349021,-900.967466462173));
#788=CARTESIAN_POINT('',(9.46068438203856,-56.0909909215636,-898.948034240576));
#789=CARTESIAN_POINT('',(7.17946325408175,-52.6080986651468,-900.718351944807));
#790=CARTESIAN_POINT('',(7.17946325408175,-52.7590842518083,-898.69891972321));
#791=CARTESIAN_POINT('',(3.78711932477284,-50.4167580715251,-900.554513395751));
#792=CARTESIAN_POINT('',(3.78711932477284,-50.5677436581866,-898.535081174153));
#793=CARTESIAN_POINT('',(1.13183611554212,-49.9382397268616,-900.518736323253));
#794=CARTESIAN_POINT('',(1.13183611554212,-50.0892253135231,-898.499304101655));
#795=CARTESIAN_POINT('',(-0.187657462511627,-49.962836361209,-900.520575323952));
#796=CARTESIAN_POINT('',(-0.187657462511627,-50.1138219478705,-898.501143102355));
#797=CARTESIAN_POINT('',(0.,-60.,-900.));
#798=CARTESIAN_POINT('',(0.187518462558658,-49.9628547241738,-900.520300398482));
#799=CARTESIAN_POINT('',(0.187518462558658,-50.1138196576979,-898.501144412598));
#800=CARTESIAN_POINT('',(-1.12964330618305,-49.9383175042399,-900.518465839981));
#801=CARTESIAN_POINT('',(-1.12964330618305,-50.089282437764,-898.499309854097));
#802=CARTESIAN_POINT('',(-3.78943471271673,-50.4167153992958,-900.554233906903));
#803=CARTESIAN_POINT('',(-3.78943471271673,-50.5676803328199,-898.535077921019));
#804=CARTESIAN_POINT('',(-7.18484684984269,-52.6122816755741,-900.718388394849));
#805=CARTESIAN_POINT('',(-7.18484684984269,-52.7632466090982,-898.699232408965));
#806=CARTESIAN_POINT('',(-9.46738218464985,-55.9531898796928,-900.968175924129));
#807=CARTESIAN_POINT('',(-9.46738218464985,-56.1041548132168,-898.949019938245));
#808=CARTESIAN_POINT('',(-10.2672004299534,-59.9095569801987,-901.26397907183));
#809=CARTESIAN_POINT('',(-10.2672004299534,-60.0605219137228,-899.244823085946));
#810=CARTESIAN_POINT('',(-9.46381220427955,-63.8632886564867,-901.559585178468));
#811=CARTESIAN_POINT('',(-9.46381220427955,-64.0142535900107,-899.540429192583));
#812=CARTESIAN_POINT('',(-7.18744598510403,-67.1965746697531,-901.808802824321));
#813=CARTESIAN_POINT('',(-7.18744598510403,-67.3475396032771,-899.789646838437));
#814=CARTESIAN_POINT('',(-3.7875239034437,-69.3928246964757,-901.973008433794));
#815=CARTESIAN_POINT('',(-3.7875239034437,-69.5437896299997,-899.95385244791));
#816=CARTESIAN_POINT('',(-1.14342841566715,-69.8732993774243,-902.00893177443));
#817=CARTESIAN_POINT('',(-1.14342841566715,-70.0242643109484,-899.989775788545));
#818=CARTESIAN_POINT('',(0.18984911141656,-69.8481376931953,-902.007050527008));
#819=CARTESIAN_POINT('',(0.18984911141656,-69.9991026267193,-899.987894541124));
#820=CARTESIAN_POINT('',(0.,-60.,-900.));
#821=CARTESIAN_POINT('',(9.475961920991,-96.3819365656397,-360.744911145093));
#822=CARTESIAN_POINT('',(9.475961920991,-55.7894237540353,-903.669770000302));
#823=CARTESIAN_POINT('',(10.2626393280353,-100.294485212044,-361.037438146694));
#824=CARTESIAN_POINT('',(10.2626393280353,-59.7019724004397,-903.962297001903));
#825=CARTESIAN_POINT('',(9.47348076686764,-104.217661020997,-361.330759702503));
#826=CARTESIAN_POINT('',(9.47348076686764,-63.6251482093926,-904.255618557712));
#827=CARTESIAN_POINT('',(7.24503013837651,-107.520488424322,-361.577700069107));
#828=CARTESIAN_POINT('',(7.24503013837651,-66.9279756127173,-904.502558924316));
#829=CARTESIAN_POINT('',(3.91172520332655,-109.729138502745,-361.742832785251));
#830=CARTESIAN_POINT('',(3.91172520332655,-69.1366256911402,-904.66769164046));
#831=CARTESIAN_POINT('',(-0.0125009583990359,-110.498653003089,-361.800366579669));
#832=CARTESIAN_POINT('',(-0.0125009583990359,-69.9061401914848,-904.725225434878));
#833=CARTESIAN_POINT('',(-3.93028125960449,-109.720211910005,-361.742165376448));
#834=CARTESIAN_POINT('',(-3.93028125960449,-69.1276990984008,-904.667024231657));
#835=CARTESIAN_POINT('',(-7.25366403463324,-107.511828689615,-361.577052612307));
#836=CARTESIAN_POINT('',(-7.25366403463324,-66.9193158780107,-904.501911467515));
#837=CARTESIAN_POINT('',(-9.47819381454295,-104.203830266068,-361.329725627369));
#838=CARTESIAN_POINT('',(-9.47819381454295,-63.6113174544641,-904.254584482578));
#839=CARTESIAN_POINT('',(-10.261143477189,-100.296210090098,-361.037567109539));
#840=CARTESIAN_POINT('',(-10.261143477189,-59.703697278494,-903.962425964747));
#841=CARTESIAN_POINT('',(-9.4772320480987,-96.383659340665,-360.745039950703));
#842=CARTESIAN_POINT('',(-9.4772320480987,-55.7911465290606,-903.669898805912));
#843=CARTESIAN_POINT('',(-7.24520031248833,-93.071355140225,-360.49739103852));
#844=CARTESIAN_POINT('',(-7.24520031248833,-52.4788423286206,-903.422249893729));
#845=CARTESIAN_POINT('',(-3.91693782594762,-90.8668093486412,-360.332565184944));
#846=CARTESIAN_POINT('',(-3.91693782594762,-50.2742965370368,-903.257424040153));
#847=CARTESIAN_POINT('',(0.000754655067820944,-90.0942411068452,-360.274803073409));
#848=CARTESIAN_POINT('',(0.000754655067820944,-49.5017282952408,-903.199661928617));
#849=CARTESIAN_POINT('',(3.91795978098262,-90.8673004071008,-360.332601899595));
#850=CARTESIAN_POINT('',(3.91795978098262,-50.2747875954964,-903.257460754804));
#851=CARTESIAN_POINT('',(7.24535434023767,-93.0717543221575,-360.497420883899));
#852=CARTESIAN_POINT('',(7.24535434023767,-52.4792415105531,-903.422279739108));
#853=CARTESIAN_POINT('',(9.475961920991,-96.3819365656397,-360.744911145093));
#854=CARTESIAN_POINT('',(9.475961920991,-55.7894237540353,-903.669770000302));
#855=CARTESIAN_POINT('',(10.2626393280353,-100.294485212044,-361.037438146694));
#856=CARTESIAN_POINT('',(10.2626393280353,-59.7019724004397,-903.962297001903));
#857=CARTESIAN_POINT('',(9.47348076686764,-104.217661020997,-361.330759702503));
#858=CARTESIAN_POINT('',(9.47348076686764,-63.6251482093926,-904.255618557712));
#859=CARTESIAN_POINT('',(3.08148791101958E-30,76.,0.));
#860=CARTESIAN_POINT('',(22.5,158.,-358.9711431703));
#861=CARTESIAN_POINT('',(22.5,203.,-358.9711431703));
#862=CARTESIAN_POINT('',(22.5,203.,-358.9711431703));
#863=CARTESIAN_POINT('',(167.75,203.,-610.551522969678));
#864=CARTESIAN_POINT('',(206.721143170299,203.,-588.051522969679));
#865=CARTESIAN_POINT('',(484.852034027407,203.,-709.163898683442));
#866=CARTESIAN_POINT('',(484.852034027407,203.,-709.163898683442));
#867=CARTESIAN_POINT('',(479.028605512601,164.0288568297,-730.897229774946));
#868=CARTESIAN_POINT('',(206.7211431703,203.,-588.051522969679));
#869=CARTESIAN_POINT('',(195.074286140686,203.,-631.518185152687));
#870=CARTESIAN_POINT('',(195.074286140686,203.,-631.518185152687));
#871=CARTESIAN_POINT('',(0.188713054966361,109.886153129711,-366.49889006939));
#872=CARTESIAN_POINT('',(0.188713054966361,110.037577908133,-364.473583657996));
#873=CARTESIAN_POINT('',(-1.13891584600216,109.911070446659,-366.500753046357));
#874=CARTESIAN_POINT('',(-1.13891584600216,110.062495225081,-364.475446634963));
#875=CARTESIAN_POINT('',(-3.78743135070854,109.431341297415,-366.464885446415));
#876=CARTESIAN_POINT('',(-3.78743135070854,109.582766075837,-364.439579035021));
#877=CARTESIAN_POINT('',(-7.18401320680299,107.237240109899,-366.300840497815));
#878=CARTESIAN_POINT('',(-7.18401320680299,107.388664888321,-364.275534086421));
#879=CARTESIAN_POINT('',(-9.46251673903884,103.904803442014,-366.051686354423));
#880=CARTESIAN_POINT('',(-9.46251673903884,104.056228220436,-364.026379943029));
#881=CARTESIAN_POINT('',(-10.2677504638914,99.9498575577506,-365.755989465879));
#882=CARTESIAN_POINT('',(-10.2677504638914,100.101282336173,-363.730683054485));
#883=CARTESIAN_POINT('',(-9.46647333811667,95.9878356254408,-365.459763527015));
#884=CARTESIAN_POINT('',(-9.46647333811667,96.1392604038627,-363.434457115621));
#885=CARTESIAN_POINT('',(-7.18258819795572,92.6487080159309,-365.210109126304));
#886=CARTESIAN_POINT('',(-7.18258819795572,92.8001327943528,-363.18480271491));
#887=CARTESIAN_POINT('',(-3.78974169700743,90.4549392098023,-365.046089028649));
#888=CARTESIAN_POINT('',(-3.78974169700743,90.6063639882243,-363.020782617255));
#889=CARTESIAN_POINT('',(-1.12922532177604,89.976341238187,-365.010306002734));
#890=CARTESIAN_POINT('',(-1.12922532177604,90.127766016609,-362.984999591341));
#891=CARTESIAN_POINT('',(0.187348962166488,90.0008448722229,-365.012138050139));
#892=CARTESIAN_POINT('',(0.187348962166488,90.1522696506449,-362.986831638745));
#893=CARTESIAN_POINT('',(0.,100.,-365.));
#894=CARTESIAN_POINT('',(-0.187241384602113,90.0008417815168,-365.01215212035));
#895=CARTESIAN_POINT('',(-0.187241384602113,90.1524460707963,-362.984444751237));
#896=CARTESIAN_POINT('',(1.12872198020938,89.9763635458401,-365.010321971889));
#897=CARTESIAN_POINT('',(1.12872198020938,90.1279678351196,-362.982614602776));
#898=CARTESIAN_POINT('',(3.78688327115754,90.4542970284069,-365.04605531638));
#899=CARTESIAN_POINT('',(3.78688327115754,90.6059013176864,-363.018347947267));
#900=CARTESIAN_POINT('',(7.17776089423717,92.6447638214212,-365.209828534549));
#901=CARTESIAN_POINT('',(7.17776089423717,92.7963681107007,-363.182121165436));
#902=CARTESIAN_POINT('',(9.46107275905373,95.9774057982345,-365.458998028142));
#903=CARTESIAN_POINT('',(9.46107275905373,96.1290100875139,-363.431290659029));
#904=CARTESIAN_POINT('',(10.2688564249538,99.935659111281,-365.75494220108));
#905=CARTESIAN_POINT('',(10.2688564249538,100.087263400561,-363.727234831968));
#906=CARTESIAN_POINT('',(9.46349029324885,103.904517336411,-366.051679264642));
#907=CARTESIAN_POINT('',(9.46349029324885,104.056121625691,-364.023971895529));
#908=CARTESIAN_POINT('',(7.18705319675828,107.233567705962,-366.300580226851));
#909=CARTESIAN_POINT('',(7.18705319675828,107.385171995242,-364.272872857738));
#910=CARTESIAN_POINT('',(3.78806626444672,109.432887248309,-366.465015332821));
#911=CARTESIAN_POINT('',(3.78806626444672,109.584491537589,-364.437307963709));
#912=CARTESIAN_POINT('',(1.13298283675174,109.910863298933,-366.500751859969));
#913=CARTESIAN_POINT('',(1.13298283675174,110.062467588213,-364.473044490856));
#914=CARTESIAN_POINT('',(-0.188189303861434,109.886163980056,-366.498905181923));
#915=CARTESIAN_POINT('',(-0.188189303861434,110.037768269336,-364.47119781281));
#916=CARTESIAN_POINT('',(0.,100.,-365.));
#917=CARTESIAN_POINT('',(45.,128.,-945.));
#918=CARTESIAN_POINT('',(45.,173.,-945.));
#919=CARTESIAN_POINT('',(45.,173.,-945.));
#920=CARTESIAN_POINT('',(505.,173.,-945.));
#921=CARTESIAN_POINT('',(505.,173.,-990.));
#922=CARTESIAN_POINT('',(904.515331370398,173.,-1325.87572106361));
#923=CARTESIAN_POINT('',(904.515331370398,173.,-1325.87572106361));
#924=CARTESIAN_POINT('',(872.695526217003,173.,-1357.695526217));
#925=CARTESIAN_POINT('',(505.,173.,-990.));
#926=CARTESIAN_POINT('',(536.819805153395,173.,-958.180194846605));
#927=CARTESIAN_POINT('',(536.819805153395,173.,-958.180194846606));
#928=CARTESIAN_POINT('',(-0.189417006527352,69.9991137885678,-899.987893894183));
#929=CARTESIAN_POINT('',(-0.189417006527352,69.8481282019062,-902.007326115782));
#930=CARTESIAN_POINT('',(1.13974122114928,70.0241233548573,-899.989763768299));
#931=CARTESIAN_POINT('',(1.13974122114928,69.8731377681957,-902.009195989898));
#932=CARTESIAN_POINT('',(3.78872506470536,69.5443467819362,-899.953892622658));
#933=CARTESIAN_POINT('',(3.78872506470536,69.3933611952746,-901.973324844256));
#934=CARTESIAN_POINT('',(7.18666478236953,67.3466260710283,-899.789577055488));
#935=CARTESIAN_POINT('',(7.18666478236953,67.1956404843667,-901.809009277087));
#936=CARTESIAN_POINT('',(9.46249318047794,64.0205097282801,-899.540895459769));
#937=CARTESIAN_POINT('',(9.46249318047794,63.8695241416185,-901.560327681368));
#938=CARTESIAN_POINT('',(10.2692016503647,60.046000086682,-899.243735860396));
#939=CARTESIAN_POINT('',(10.2692016503647,59.8950145000205,-901.263168081995));
#940=CARTESIAN_POINT('',(9.46068438203856,56.0909909215636,-898.948034240576));
#941=CARTESIAN_POINT('',(9.46068438203856,55.940005334902,-900.967466462175));
#942=CARTESIAN_POINT('',(7.17946325408175,52.7590842518083,-898.69891972321));
#943=CARTESIAN_POINT('',(7.17946325408175,52.6080986651467,-900.718351944809));
#944=CARTESIAN_POINT('',(3.78711932477284,50.5677436581866,-898.535081174153));
#945=CARTESIAN_POINT('',(3.78711932477284,50.416758071525,-900.554513395752));
#946=CARTESIAN_POINT('',(1.13183611554212,50.0892253135231,-898.499304101656));
#947=CARTESIAN_POINT('',(1.13183611554212,49.9382397268615,-900.518736323255));
#948=CARTESIAN_POINT('',(-0.187657462511627,50.1138219478706,-898.501143102355));
#949=CARTESIAN_POINT('',(-0.187657462511627,49.962836361209,-900.520575323953));
#950=CARTESIAN_POINT('',(0.,60.,-900.));
#951=CARTESIAN_POINT('',(9.475961920991,55.7894237540353,-903.669770000302));
#952=CARTESIAN_POINT('',(9.475961920991,96.3819365656397,-360.744911145093));
#953=CARTESIAN_POINT('',(10.2626393280353,59.7019724004397,-903.962297001903));
#954=CARTESIAN_POINT('',(10.2626393280353,100.294485212044,-361.037438146694));
#955=CARTESIAN_POINT('',(9.47348076686764,63.6251482093927,-904.255618557712));
#956=CARTESIAN_POINT('',(9.47348076686764,104.217661020997,-361.330759702503));
#957=CARTESIAN_POINT('',(7.24503013837651,66.9279756127173,-904.502558924316));
#958=CARTESIAN_POINT('',(7.24503013837651,107.520488424322,-361.577700069107));
#959=CARTESIAN_POINT('',(3.91172520332655,69.1366256911402,-904.66769164046));
#960=CARTESIAN_POINT('',(3.91172520332655,109.729138502745,-361.742832785251));
#961=CARTESIAN_POINT('',(-0.0125009583990359,69.9061401914849,-904.725225434878));
#962=CARTESIAN_POINT('',(-0.0125009583990359,110.498653003089,-361.800366579669));
#963=CARTESIAN_POINT('',(-3.93028125960449,69.1276990984008,-904.667024231657));
#964=CARTESIAN_POINT('',(-3.93028125960449,109.720211910005,-361.742165376448));
#965=CARTESIAN_POINT('',(-7.25366403463324,66.9193158780108,-904.501911467515));
#966=CARTESIAN_POINT('',(-7.25366403463324,107.511828689615,-361.577052612307));
#967=CARTESIAN_POINT('',(-9.47819381454295,63.611317454464,-904.254584482578));
#968=CARTESIAN_POINT('',(-9.47819381454295,104.203830266068,-361.329725627369));
#969=CARTESIAN_POINT('',(-10.261143477189,59.703697278494,-903.962425964747));
#970=CARTESIAN_POINT('',(-10.261143477189,100.296210090098,-361.037567109538));
#971=CARTESIAN_POINT('',(-9.4772320480987,55.7911465290606,-903.669898805912));
#972=CARTESIAN_POINT('',(-9.4772320480987,96.383659340665,-360.745039950704));
#973=CARTESIAN_POINT('',(-7.24520031248833,52.4788423286206,-903.422249893729));
#974=CARTESIAN_POINT('',(-7.24520031248833,93.071355140225,-360.49739103852));
#975=CARTESIAN_POINT('',(-3.91693782594762,50.2742965370368,-903.257424040153));
#976=CARTESIAN_POINT('',(-3.91693782594762,90.8668093486412,-360.332565184944));
#977=CARTESIAN_POINT('',(0.000754655067820944,49.5017282952408,-903.199661928618));
#978=CARTESIAN_POINT('',(0.000754655067820944,90.0942411068452,-360.274803073409));
#979=CARTESIAN_POINT('',(3.91795978098262,50.2747875954964,-903.257460754804));
#980=CARTESIAN_POINT('',(3.91795978098262,90.8673004071008,-360.332601899595));
#981=CARTESIAN_POINT('',(7.24535434023767,52.4792415105531,-903.422279739108));
#982=CARTESIAN_POINT('',(7.24535434023767,93.0717543221575,-360.497420883899));
#983=CARTESIAN_POINT('',(9.475961920991,55.7894237540353,-903.669770000302));
#984=CARTESIAN_POINT('',(9.475961920991,96.3819365656397,-360.744911145093));
#985=CARTESIAN_POINT('',(10.2626393280353,59.7019724004397,-903.962297001903));
#986=CARTESIAN_POINT('',(10.2626393280353,100.294485212044,-361.037438146694));
#987=CARTESIAN_POINT('',(9.47348076686764,63.6251482093927,-904.255618557712));
#988=CARTESIAN_POINT('',(9.47348076686764,104.217661020997,-361.330759702503));
#989=CARTESIAN_POINT('',(0.,60.,-900.));
#990=CARTESIAN_POINT('',(0.187518462558662,50.1138196576979,-898.501144412598));
#991=CARTESIAN_POINT('',(0.187518462558662,49.9628547241738,-900.520300398483));
#992=CARTESIAN_POINT('',(-1.12964330618304,50.0892824377639,-898.499309854098));
#993=CARTESIAN_POINT('',(-1.12964330618304,49.9383175042399,-900.518465839983));
#994=CARTESIAN_POINT('',(-3.78943471271673,50.5676803328199,-898.535077921018));
#995=CARTESIAN_POINT('',(-3.78943471271673,50.4167153992958,-900.554233906903));
#996=CARTESIAN_POINT('',(-7.18484684984268,52.7632466090982,-898.699232408965));
#997=CARTESIAN_POINT('',(-7.18484684984268,52.6122816755741,-900.71838839485));
#998=CARTESIAN_POINT('',(-9.46738218464985,56.1041548132168,-898.949019938245));
#999=CARTESIAN_POINT('',(-9.46738218464985,55.9531898796928,-900.968175924129));
#1000=CARTESIAN_POINT('',(-10.2672004299534,60.0605219137228,-899.244823085946));
#1001=CARTESIAN_POINT('',(-10.2672004299534,59.9095569801987,-901.26397907183));
#1002=CARTESIAN_POINT('',(-9.46381220427955,64.0142535900107,-899.540429192583));
#1003=CARTESIAN_POINT('',(-9.46381220427955,63.8632886564866,-901.559585178468));
#1004=CARTESIAN_POINT('',(-7.18744598510403,67.3475396032772,-899.789646838437));
#1005=CARTESIAN_POINT('',(-7.18744598510403,67.1965746697531,-901.808802824321));
#1006=CARTESIAN_POINT('',(-3.7875239034437,69.5437896299995,-899.953852447909));
#1007=CARTESIAN_POINT('',(-3.7875239034437,69.3928246964755,-901.973008433794));
#1008=CARTESIAN_POINT('',(-1.14342841566715,70.0242643109486,-899.989775788545));
#1009=CARTESIAN_POINT('',(-1.14342841566715,69.8732993774246,-902.00893177443));
#1010=CARTESIAN_POINT('',(0.189849111416553,69.9991026267193,-899.987894541124));
#1011=CARTESIAN_POINT('',(0.189849111416553,69.8481376931953,-902.007050527008));
#1012=MECHANICAL_DESIGN_GEOMETRIC_PRESENTATION_REPRESENTATION('',(#391),#1013);
#1013=(
GEOMETRIC_REPRESENTATION_CONTEXT(3)
GLOBAL_UNCERTAINTY_ASSIGNED_CONTEXT((#1014))
GLOBAL_UNIT_ASSIGNED_CONTEXT((#1017,#1016,#1015))
REPRESENTATION_CONTEXT('Part 1','TOP_LEVEL_ASSEMBLY_PART')
);
#1014=UNCERTAINTY_MEASURE_WITH_UNIT(LENGTH_MEASURE(1.E-05),#1017,'DISTANCE_ACCURACY_VALUE','Maximum Tolerance applied to model');
#1015=(
NAMED_UNIT(*)
SI_UNIT($,.STERADIAN.)
SOLID_ANGLE_UNIT()
);
#1016=(
NAMED_UNIT(*)
PLANE_ANGLE_UNIT()
SI_UNIT($,.RADIAN.)
);
#1017=(
LENGTH_UNIT()
NAMED_UNIT(*)
SI_UNIT(.MILLI.,.METRE.)
);
#1018=PRODUCT_DEFINITION_SHAPE('','',#1019);
#1019=PRODUCT_DEFINITION('','',#1021,#1020);
#1020=PRODUCT_DEFINITION_CONTEXT('',#1027,'design');
#1021=PRODUCT_DEFINITION_FORMATION_WITH_SPECIFIED_SOURCE('','',#1023,.NOT_KNOWN.);
#1022=PRODUCT_RELATED_PRODUCT_CATEGORY('','',(#1023));
#1023=PRODUCT('Part 1','Part 1','Part 1',(#1025));
#1024=PRODUCT_CATEGORY('','');
#1025=PRODUCT_CONTEXT('',#1027,'mechanical');
#1026=APPLICATION_PROTOCOL_DEFINITION('international standard','ap242_managed_model_based_3d_engineering',2020,#1027);
#1027=APPLICATION_CONTEXT('managed model based 3d engineering');
ENDSEC;
END-ISO-10303-21;
